<?xml version="1.0" standalone="no"?><svg xmlns:xlink="http://www.w3.org/1999/xlink" xmlns="http://www.w3.org/2000/svg" viewBox="0 0 1000 1428.6221689010265" preserveAspectRatio="xMaxYMax slice"><g transform="scale(3.94647007983709)"><rect x="0" y="0" width="253.40000000000003" height="362" fill="#ffffff"/><circle cx="126.7" cy="18.1" r="3.62" fill="#366767"/><circle cx="54.3" cy="54.3" r="3.62" fill="#9cb4b4"/><circle cx="199.1" cy="54.3" r="3.62" fill="#9cc5c5"/><circle cx="235.3" cy="54.3" r="3.62" fill="#ffe7b0"/><circle cx="90.5" cy="90.5" r="3.62" fill="#8ababa"/><circle cx="235.3" cy="90.5" r="3.62" fill="#dae3e3"/><circle cx="54.3" cy="126.7" r="3.62" fill="#c8dede"/><circle cx="126.7" cy="126.7" r="3.62" fill="#f5a8a6"/><circle cx="162.9" cy="126.7" r="3.62" fill="#fff9ed"/><circle cx="199.1" cy="162.9" r="3.62" fill="#f28f8d"/><circle cx="54.3" cy="199.1" r="3.62" fill="#f39c9a"/><circle cx="162.9" cy="199.1" r="3.62" fill="#fce9e9"/><circle cx="199.1" cy="199.1" r="3.62" fill="#accece"/><circle cx="199.1" cy="235.3" r="3.62" fill="#ffd87f"/><circle cx="18.1" cy="271.5" r="3.62" fill="#ffe9b6"/><circle cx="199.1" cy="271.5" r="3.62" fill="#308686"/><circle cx="54.3" cy="307.7" r="3.62" fill="#225858"/><circle cx="90.5" cy="307.7" r="3.62" fill="#1e7b7b"/><circle cx="126.7" cy="307.7" r="3.62" fill="#90bebe"/><circle cx="162.9" cy="307.7" r="3.62" fill="#fbe1e0"/><circle cx="18.1" cy="343.9" r="3.62" fill="#f4f6f6"/><circle cx="90.5" cy="343.9" r="3.62" fill="#91acac"/></g></svg>