<?xml version="1.0" standalone="no"?><svg xmlns:xlink="http://www.w3.org/1999/xlink" xmlns="http://www.w3.org/2000/svg" viewBox="0 0 800 1142.8688326167671" preserveAspectRatio="xMaxYMax slice"><g transform="scale(2.7276105790376306)"><rect x="0" y="0" width="293.3" height="419" fill="#ffffff"/><circle cx="20.950000000000003" cy="20.950000000000003" r="4.19" fill="#ed6b69"/><circle cx="62.849999999999994" cy="20.950000000000003" r="4.19" fill="#ffe9b7"/><circle cx="104.75" cy="20.950000000000003" r="4.19" fill="#abbfbf"/><circle cx="146.65" cy="20.950000000000003" r="4.19" fill="#7b9b9b"/><circle cx="188.55" cy="20.950000000000003" r="4.19" fill="#ec605d"/><circle cx="230.45" cy="20.950000000000003" r="4.19" fill="#ffcb52"/><circle cx="272.35" cy="20.950000000000003" r="4.19" fill="#fff9ed"/><circle cx="20.950000000000003" cy="62.849999999999994" r="4.19" fill="#f7fafa"/><circle cx="62.849999999999994" cy="62.849999999999994" r="4.19" fill="#588181"/><circle cx="104.75" cy="62.849999999999994" r="4.19" fill="#7a9b9b"/><circle cx="146.65" cy="62.849999999999994" r="4.19" fill="#ffd980"/><circle cx="188.55" cy="62.849999999999994" r="4.19" fill="#fffaed"/><circle cx="230.45" cy="62.849999999999994" r="4.19" fill="#3b6b6b"/><circle cx="272.35" cy="62.849999999999994" r="4.19" fill="#eb5b58"/><circle cx="20.950000000000003" cy="104.75" r="4.19" fill="#fff6e2"/><circle cx="62.849999999999994" cy="104.75" r="4.19" fill="#f5aeac"/><circle cx="104.75" cy="104.75" r="4.19" fill="#ed6764"/><circle cx="146.65" cy="104.75" r="4.19" fill="#658b8b"/><circle cx="188.55" cy="104.75" r="4.19" fill="#fef9f9"/><circle cx="230.45" cy="104.75" r="4.19" fill="#fff2d4"/><circle cx="272.35" cy="104.75" r="4.19" fill="#ffedc3"/><circle cx="20.950000000000003" cy="146.65" r="4.19" fill="#fffbfb"/><circle cx="62.849999999999994" cy="146.65" r="4.19" fill="#ffde90"/><circle cx="104.75" cy="146.65" r="4.19" fill="#5c8484"/><circle cx="146.65" cy="146.65" r="4.19" fill="#ffe19b"/><circle cx="188.55" cy="146.65" r="4.19" fill="#ee726f"/><circle cx="230.45" cy="146.65" r="4.19" fill="#709393"/><circle cx="272.35" cy="146.65" r="4.19" fill="#ffdd8e"/><circle cx="20.950000000000003" cy="188.55" r="4.19" fill="#7d9d9d"/><circle cx="62.849999999999994" cy="188.55" r="4.19" fill="#abcece"/><circle cx="104.75" cy="188.55" r="4.19" fill="#eb5855"/><circle cx="146.65" cy="188.55" r="4.19" fill="#b6d4d4"/><circle cx="188.55" cy="188.55" r="4.19" fill="#ef7b79"/><circle cx="230.45" cy="188.55" r="4.19" fill="#ffcc57"/><circle cx="272.35" cy="188.55" r="4.19" fill="#cae0e0"/><circle cx="20.950000000000003" cy="230.45" r="4.19" fill="#fff2d2"/><circle cx="62.849999999999994" cy="230.45" r="4.19" fill="#ffd062"/><circle cx="104.75" cy="230.45" r="4.19" fill="#376868"/><circle cx="146.65" cy="230.45" r="4.19" fill="#f0f6f6"/><circle cx="188.55" cy="230.45" r="4.19" fill="#328686"/><circle cx="230.45" cy="230.45" r="4.19" fill="#fef7f7"/><circle cx="272.35" cy="230.45" r="4.19" fill="#ffe6ac"/><circle cx="20.950000000000003" cy="272.35" r="4.19" fill="#729494"/><circle cx="62.849999999999994" cy="272.35" r="4.19" fill="#ffce5c"/><circle cx="104.75" cy="272.35" r="4.19" fill="#ef7875"/><circle cx="146.65" cy="272.35" r="4.19" fill="#fffbf3"/><circle cx="188.55" cy="272.35" r="4.19" fill="#ffde92"/><circle cx="230.45" cy="272.35" r="4.19" fill="#fce8e8"/><circle cx="272.35" cy="272.35" r="4.19" fill="#b8caca"/><circle cx="20.950000000000003" cy="314.25" r="4.19" fill="#fff5df"/><circle cx="62.849999999999994" cy="314.25" r="4.19" fill="#698d8d"/><circle cx="104.75" cy="314.25" r="4.19" fill="#ffcc54"/><circle cx="146.65" cy="314.25" r="4.19" fill="#fffcfc"/><circle cx="188.55" cy="314.25" r="4.19" fill="#185151"/><circle cx="230.45" cy="314.25" r="4.19" fill="#c1d0d0"/><circle cx="272.35" cy="314.25" r="4.19" fill="#f8f9f9"/><circle cx="20.950000000000003" cy="356.15" r="4.19" fill="#9bc4c4"/><circle cx="62.849999999999994" cy="356.15" r="4.19" fill="#f08683"/><circle cx="104.75" cy="356.15" r="4.19" fill="#eaf3f3"/><circle cx="146.65" cy="356.15" r="4.19" fill="#fdfefe"/><circle cx="188.55" cy="356.15" r="4.19" fill="#e8eeee"/><circle cx="230.45" cy="356.15" r="4.19" fill="#ffd981"/><circle cx="272.35" cy="356.15" r="4.19" fill="#f18e8c"/><circle cx="20.950000000000003" cy="398.05" r="4.19" fill="#285c5c"/><circle cx="62.849999999999994" cy="398.05" r="4.19" fill="#f08582"/><circle cx="104.75" cy="398.05" r="4.19" fill="#fff5df"/><circle cx="146.65" cy="398.05" r="4.19" fill="#ffe098"/><circle cx="188.55" cy="398.05" r="4.19" fill="#f5adac"/><circle cx="230.45" cy="398.05" r="4.19" fill="#358989"/><circle cx="272.35" cy="398.05" r="4.19" fill="#ffdf95"/></g></svg>